PathFileType	4	(X/Y/Z)	C:\Users\°ÂÌØÂü\Desktop\20210112\bx_y_0_501-Unnamed.trc
DataRate	CameraRate	NumFrames	NumMarkers	Units	OrigDataRate	OrigDataStartFrame	OrigNumFrames
50.00	50.00	       4	0	mm	50.00	76	       603
Frame#	Time	
		

76	1.500	-696.44586	-67.31596	1545.88708	-682.27173	-51.28157	730.48572	-589.84711	-1.13475	1050.07031	-618.74255	111.77986	1435.66113	-584.32025	-1.19065	799.93518	-579.34198	217.47534	812.93677	-725.54456	250.46622	638.81848	-688.31866	145.16705	571.62396	-729.44189	246.59245	575.44000	-668.67432	21.22232	519.43695	-770.54523	254.39360	502.24130	-675.13367	207.24866	531.50635	-716.69336	79.08202	216.00806	-663.13928	-65.88893	164.17551	-711.39240	151.92715	216.10622	-771.47833	221.69073	205.54558	-622.31683	-76.75116	159.66957	-882.40680	296.07779	144.65472	-674.84979	57.06758	156.70668	-603.59418	20.58243	165.40504	-675.22998	172.34541	157.37195	-594.60541	222.06639	173.55560	-667.03485	298.75650	160.42653	-630.09753	306.00330	161.92709	-560.57764	261.11789	166.33495	-528.11536	304.45233	146.53067	-681.11987	121.99902	1851.57556	-719.70239	292.49673	1536.18616	-517.70001	-72.60267	142.91457	-796.27863	171.54901	184.55237	-766.15778	-4.47102	208.11426	-794.55334	55.99842	175.23846	-787.42181	98.36615	1057.29529	-763.71057	-32.90210	488.79984	-559.64001	-39.26527	164.89462	-876.02838	-78.54763	141.55200	-652.03564	-66.76756	863.15442	-708.80298	-27.11316	612.31512	-717.74365	-23.20760	567.17053				-581.52765	223.69400	1068.60498	-683.58020	268.10403	716.49664	-691.27405	81.54139	570.52789	-637.44299	283.13602	876.35944	
77	1.520	-696.39587	-67.13599	1545.83398	-682.13135	-51.21065	730.39862	-589.83899	-0.97411	1050.15503	-618.74255	111.77986	1435.66113	-584.27014	-0.81372	799.87280	-579.57690	217.71678	812.88043	-725.44513	250.50072	638.93347	-688.31866	145.16705	571.62396	-729.35583	246.77269	575.50208	-668.67432	21.22232	519.43695	-770.53961	254.66916	502.51718	-675.04657	207.28102	531.68225	-716.69336	79.08202	216.00806	-663.33197	-65.98524	164.24167	-711.35449	151.95381	216.14171	-771.40076	221.69302	205.57173	-622.31683	-76.75116	159.66957	-882.64111	296.18625	144.72813	-674.90088	57.02615	156.88351	-603.44965	20.59990	165.31076	-675.38831	172.11789	157.48869	-594.57410	222.20074	173.57097	-667.31226	298.86237	160.21078	-630.09753	306.00330	161.92709	-560.56683	261.13159	166.21191	-527.99475	304.39630	146.60587	-681.02155	122.15499	1851.52026	-719.55774	292.58661	1535.95923	-517.66736	-72.72713	142.77681	-796.27563	171.69783	184.59731	-766.10748	-4.44625	208.19144	-794.48962	56.20985	175.21126	-787.31543	98.37717	1057.35181	-763.71851	-32.75705	488.77957	-559.64001	-39.26527	164.89462	-876.05139	-78.44123	141.62697	-651.92749	-66.74779	863.06512	-708.81189	-27.04646	612.37134	-717.76904	-23.00733	566.95044				-581.52765	223.69400	1068.60498	-683.67993	268.32001	716.54932	-691.21234	81.44276	570.63727	-637.48090	283.07874	876.45398	
78	1.540	-696.23132	-67.22793	1545.97290	-682.11792	-51.29748	730.79773	-589.61469	-1.17443	1050.25989	-618.74255	111.77986	1435.66113	-583.91052	-0.63552	799.92767	-579.35547	217.73288	812.95313	-725.48151	250.73993	638.79205	-688.31866	145.16705	571.62396	-729.49890	246.72881	575.31818	-668.40851	21.20006	519.72461	-770.46967	254.43645	502.28525	-675.12689	207.34177	531.52246	-716.69336	79.08202	216.00806	-663.32397	-65.93097	164.29755	-711.25610	151.91563	216.23796	-771.40076	221.69302	205.57173	-622.16760	-76.59409	159.72026	-882.55920	296.25497	144.75124	-674.90088	57.02615	156.88351	-603.57196	20.68863	165.39325	-675.38531	172.18372	157.28877	-594.73462	222.21396	173.44960	-667.23346	298.89139	160.21617	-630.15106	305.97440	162.00188	-560.48633	260.93674	166.09946	-527.99475	304.39630	146.60587	-680.99890	122.33513	1851.52551	-719.54968	292.73322	1536.11462	-517.80884	-72.37861	142.64427	-796.13867	171.69182	184.44653	-766.15973	-4.51744	208.05495	-794.55334	55.99842	175.23846	-787.29919	98.39666	1057.43274	-763.84137	-32.57455	488.67032	-559.56097	-39.14242	164.92319	-876.24036	-78.65720	141.62660	-652.03564	-66.76756	863.15442	-708.85950	-26.87416	612.30859	-717.75153	-23.13553	567.26141				-581.52765	223.69400	1068.60498	-683.88367	268.28870	716.53760	-691.09607	81.54834	570.67859	-637.77557	283.11209	875.93066	
79	1.560	-696.24084	-67.18091	1546.01599	-682.01880	-51.27829	730.61371	-591.06317	-0.04305	1049.37170	-618.83771	111.90492	1435.36682	-583.87000	-0.63936	799.99207	-579.40649	217.66290	812.88776	-725.36481	250.58556	638.75439	-688.44501	145.04436	571.86792	-729.35583	246.77269	575.50208	-668.62317	21.46739	519.49835	-770.41010	254.47429	502.29501	-675.17493	207.38768	531.60828	-716.69336	79.08202	216.00806	-663.26990	-65.91377	164.35393	-711.25610	151.91563	216.23796	-771.40076	221.69302	205.57173	-622.26105	-76.69265	159.54808	-882.57764	296.19299	144.67506	-674.90088	57.02615	156.88351	-603.56812	20.75261	165.33197	-675.30743	172.20436	157.37593	-594.57410	222.20074	173.57097	-667.33984	298.94482	160.12357	-629.99268	306.04651	162.15489	-560.65100	261.02661	166.24149	-528.13019	304.67343	146.74005	-680.95306	122.27605	1851.52930	-719.27130	292.73471	1536.12402	-517.68134	-72.46423	143.05693	-796.27863	171.54901	184.55237	-766.18713	-4.40520	208.16862	-794.49506	56.04362	175.11934	-787.19214	98.29321	1057.32837	-763.72681	-32.66136	488.82791	-559.64001	-39.26527	164.89462	-876.05621	-78.49118	141.57738	-651.82831	-66.65504	863.08026	-708.69336	-26.81858	612.32715	-717.75153	-23.13553	567.26141				-581.44489	224.08372	1068.39502	-683.88367	268.28870	716.53760	-690.89185	81.73775	570.45013	-637.73468	283.43738	875.95239	
